<svg width="64" height="64" viewBox="0 0 64 64" fill="none" xmlns="http://www.w3.org/2000/svg">
<g clip-path="url(#clip0_1_2)">
<rect width="64" height="64" rx="8" fill="white"/>
<rect width="64" height="64" rx="8" fill="#28232C"/>
<path d="M21.952 44.384C19.312 44.384 10 42.944 10 32.24C10 21.248 18.4 20 21.952 20C25.84 20 28.816 21.2 30.88 23.552C33.808 26.912 33.952 32.048 33.664 34.16H15.904C16 35.456 16.528 36.704 17.44 37.712C18.592 38.864 20.224 39.536 21.856 39.488H22.144C26.128 39.488 27.424 36.608 27.424 36.608H33.28C33.28 36.608 31.264 44.384 21.952 44.384ZM15.952 29.888H27.952C27.904 28.544 27.376 27.248 26.464 26.24C25.504 25.184 24.016 24.656 22.096 24.656H22.048C20.176 24.656 18.544 25.184 17.536 26.24C16.576 27.248 16.048 28.544 15.952 29.888Z" fill="white"/>
<path d="M49.4129 44.384C46.4369 44.384 43.5569 43.232 41.3489 41.264C39.6209 39.728 37.6049 36.944 37.6049 32.48C37.6529 25.76 42.9329 20.24 49.5569 20.192C50.9009 20.192 52.7729 20.336 54.2609 21.008V25.952C50.9489 25.088 47.8769 25.328 45.9569 26.864C44.3729 28.112 43.4609 30.032 43.4609 32.432C43.4609 34.592 44.2769 36.416 45.7649 37.616C47.6849 39.2 50.8049 39.488 54.2609 38.72V43.616C52.7729 44.24 50.9009 44.384 49.4129 44.384Z" fill="white"/>
</g>
<defs>
<clipPath id="clip0_1_2">
<rect width="64" height="64" rx="8" fill="white"/>
</clipPath>
</defs>
</svg>
